<svg width="1222" height="462" viewBox="0 0 1222 462" fill="none" xmlns="http://www.w3.org/2000/svg">
<path d="M465.087 37.5361C464.043 37.8343 462.18 38.6542 460.987 39.2505C459.869 39.8467 457.26 41.1139 455.173 42.0083C451.596 43.5735 440.639 53.7104 440.639 55.3502C440.639 55.7974 439.67 57.5118 438.477 59.3006C433.781 66.4561 433.856 64.2946 434.08 156.048C434.303 248.324 433.856 240.05 439.67 249.74C445.185 258.834 452.49 265.02 461.509 268.225C465.534 269.716 469.484 269.716 827.108 269.716H1188.61L1193.38 268.001C1195.99 267.033 1199.04 265.84 1200.16 265.244C1202.99 263.753 1215.07 251.454 1215.07 250.038C1215.07 249.293 1215.37 248.473 1215.74 248.1C1216.11 247.653 1217.45 244.299 1218.72 240.572L1221.03 233.789V154.781C1221.11 103.724 1220.81 74.6551 1220.36 72.5681C1219.47 68.6176 1217.01 61.4622 1215.07 57.2882C1212.16 51.0271 1200.09 40.5176 1195.84 40.5176C1195.39 40.5176 1193.75 39.7722 1192.19 38.8032L1189.35 37.1634L828.226 37.0144C629.588 36.9398 466.205 37.1634 465.087 37.5361ZM853.941 86.8044C861.096 88.966 869.146 91.8729 871.681 93.2145C872.799 93.8108 874.513 94.7052 875.482 95.227C882.786 99.0283 893.669 109.762 898.737 118.184C904.104 127.128 905.073 129.588 906.787 138.085C909.396 150.831 909.098 158.359 905.296 173.192C903.06 181.838 897.992 190.559 890.836 198.087C885.693 203.453 878.091 209.714 876.674 209.714C876.153 209.714 874.886 210.311 873.842 211.131C869.295 214.261 862.364 217.168 856.475 218.286C843.879 220.671 837.021 221.193 829.195 220.298C813.095 218.435 803.853 215.677 797.666 210.907C797.07 210.385 795.281 209.342 793.641 208.596C790.66 207.031 779.032 197.341 779.032 196.372C779.032 196.074 777.616 193.987 775.902 191.751C771.355 185.863 768.597 179.9 764.945 167.676C763.007 161.266 762.709 145.39 764.423 140.247C765.02 138.458 765.69 135.849 765.988 134.433C767.256 128.321 772.771 117.588 777.616 111.774C780.225 108.569 787.902 101.339 791.331 98.8047C796.623 94.8543 798.188 93.9599 803.256 91.9474C805.716 90.9784 808.101 89.9349 808.474 89.7113C808.921 89.4132 810.412 88.8914 811.828 88.6678C813.244 88.3697 815.108 87.8479 815.928 87.4753C819.58 85.7609 823.456 85.3882 835.68 85.3137C847.009 85.2392 849.394 85.4628 853.941 86.8044ZM1125.4 86.8044C1145.53 92.9164 1156.26 99.6246 1166.17 111.998C1170.05 116.842 1174.07 123.402 1174.07 124.743C1174.07 125.19 1174.74 126.905 1175.56 128.694C1181.6 141.812 1181.6 163.726 1175.56 177.291C1169.3 191.229 1168.93 191.826 1159.39 201.143C1153.43 206.956 1151.12 208.522 1139.79 214.261C1130.77 218.808 1112.88 221.566 1100.95 220.298C1086.57 218.733 1078.89 216.795 1073.08 213.143C1071.06 211.801 1067.86 210.012 1066 209.044C1059.88 205.913 1049.52 195.329 1044.16 186.683C1040.13 180.198 1037.82 173.415 1036.11 162.384C1034.62 153.067 1034.54 152.396 1035.73 145.241C1037.97 131.675 1039.39 127.427 1044.38 118.78C1051.24 107.078 1065.85 94.6307 1076.8 91.2021C1078.44 90.6803 1080.16 90.0095 1080.53 89.7113C1080.98 89.4132 1082.77 88.8169 1084.63 88.3697C1086.49 87.9225 1089.33 87.1026 1090.97 86.4318C1093.2 85.6119 1097.15 85.3137 1107.14 85.2392C1118.47 85.2392 1121.08 85.4628 1125.4 86.8044ZM560.642 88.966C562.058 89.3387 565.263 90.1586 567.723 90.8294C570.182 91.5002 572.866 92.3201 573.686 92.6182C579.947 95.3015 581.735 96.345 586.208 99.6992C595.226 106.482 601.338 117.588 602.382 128.843C603.053 135.775 602.382 147.104 600.966 151.427C598.133 160.521 588.22 171.775 578.903 176.546C567.201 182.583 558.331 184.298 539.026 184.372C521.063 184.372 522.479 182.881 522.703 201.59C522.852 211.056 522.628 216.721 522.107 217.242C520.914 218.435 487.596 218.286 486.404 217.019C485.584 216.273 485.435 203.677 485.286 153.141C485.211 93.2891 485.286 90.1586 486.553 89.1896C487.596 88.4442 495.125 88.2206 522.927 88.2206C542.455 88.2206 559.226 88.5933 560.642 88.966ZM656.421 88.966L658.358 89.7113L658.284 112.147C658.209 124.52 658.508 134.955 658.88 135.327C659.775 136.222 705.912 136.296 706.881 135.327C707.403 134.806 707.627 126.607 707.552 112.594C707.403 93.2145 707.552 90.5312 708.596 89.4132C709.639 88.3697 712.099 88.2206 726.037 88.2206C737.888 88.2206 742.584 88.4442 743.479 89.1896C744.746 90.0095 744.82 94.258 744.746 152.62C744.746 191.975 744.448 215.603 744 216.423C743.33 217.69 741.839 217.839 726.708 218.062C711.205 218.286 710.012 218.211 708.819 216.944C707.627 215.677 707.478 213.367 707.478 192.273C707.478 175.204 707.254 168.794 706.583 168.123C705.465 167.005 663.129 166.856 660.222 167.974L658.284 168.72V192.049C658.284 210.236 658.06 215.677 657.315 216.721C656.421 217.988 654.855 218.062 639.277 218.062C623.848 217.988 622.059 217.839 621.24 216.721C620.494 215.677 620.271 202.484 620.271 152.62C620.271 93.5872 620.345 89.7113 621.612 89.0405C623.252 88.0715 653.812 87.997 656.421 88.966ZM1029.4 89.4132C1031.11 90.6058 1031.11 90.7548 1030.89 102.904C1030.59 114.159 1030.44 115.277 1029.1 116.246C1027.91 117.141 1024.48 117.364 1010.47 117.29C1001.08 117.215 992.951 117.215 992.503 117.215C991.982 117.29 991.385 117.886 991.162 118.557C990.864 119.228 990.64 141.29 990.715 167.601C990.715 205.689 990.565 215.603 989.746 216.646C988.926 217.913 987.286 217.988 972.081 217.988C957.024 217.988 955.235 217.839 954.416 216.721C953.67 215.677 953.447 205.168 953.447 167.154C953.447 125.563 953.297 118.855 952.329 118.035C951.509 117.364 946.589 117.141 933.769 117.215C911.408 117.364 913.197 118.631 913.197 102.606C913.197 92.7673 913.421 90.7548 914.464 89.5623C915.582 88.2952 918.34 88.2206 971.633 88.2206C1022.17 88.2206 1027.83 88.3697 1029.4 89.4132Z" fill="black"/>
<path d="M824.499 117.811C818.387 119.973 816.151 121.389 811.53 125.936C805.791 131.675 803.927 135.402 802.064 144.942C800.648 152.172 800.648 152.843 801.84 159.626C802.511 163.502 803.704 168.198 804.449 170.061C806.163 174.086 812.126 181.391 815.182 183.328C819.133 185.788 824.127 188.099 825.319 188.099C825.99 188.099 828.002 188.77 829.791 189.59C833.965 191.453 836.872 191.453 841.643 189.59C843.73 188.77 846.189 188.099 847.158 188.099C848.127 188.099 850.14 187.279 851.63 186.235C853.121 185.192 854.612 184.372 854.91 184.372C855.208 184.372 856.997 183.03 858.935 181.391C863.183 177.738 868.774 168.272 869.892 162.906C871.755 154.036 870.264 139.427 867.059 135.104C866.165 133.986 865.494 132.793 865.494 132.495C865.494 131.824 860.575 125.861 858.115 123.476C855.581 121.091 852.599 119.526 847.605 117.886C842.239 116.172 829.344 116.172 824.499 117.811Z" fill="black"/>
<path d="M1095.14 117.96C1091.04 119.302 1081.72 126.085 1080.16 128.842C1079.04 130.93 1077.77 133.017 1076.28 135.178C1072.93 140.097 1071.74 155.005 1073.9 164.247C1075.24 169.986 1080.23 177.887 1084.85 181.614C1089.7 185.564 1103.11 191.08 1107.74 191.08C1109.97 191.08 1117.65 188.62 1123.69 185.937C1135.91 180.57 1142.84 166.632 1141.87 149.564C1141.2 138.979 1138.67 132.718 1132.48 126.383C1127.94 121.687 1125.4 120.047 1119.29 117.886C1114.3 116.097 1100.88 116.171 1095.14 117.96Z" fill="black"/>
<path d="M524.119 118.035C522.703 119.451 522.628 120.494 522.628 136.296C522.628 152.098 522.703 153.067 524.045 153.812C524.864 154.259 530.604 154.557 537.387 154.557C548.418 154.557 549.536 154.408 554.008 152.619C560.269 150.085 563.847 146.284 565.039 140.619C566.605 133.836 564.741 127.277 560.045 122.507C557.288 119.824 554.157 117.811 553.337 118.333C552.965 118.556 550.878 118.258 548.641 117.662C546.182 116.991 540.964 116.544 535.15 116.544C526.579 116.544 525.461 116.693 524.119 118.035Z" fill="black"/>
<path d="M284.132 0.759145C280.927 1.72811 275.635 7.02017 273.623 11.1942C272.281 14.0266 272.057 15.7409 272.057 25.2815C272.057 34.4494 271.834 36.3128 270.79 37.1327C269.821 38.0272 251.038 38.1017 153.247 37.9526C28.4738 37.6545 36.3746 37.5054 25.7159 41.2322C13.3429 45.5553 2.46069 59.1209 0.746358 72.3137C-0.297147 80.0655 -0.222611 395.278 0.820894 401.465C2.75883 413.614 11.4795 424.795 23.7035 430.907L30.4862 434.335H198.714L366.942 434.261L374.097 430.757C380.731 427.478 384.756 424.273 389.377 418.608C391.762 415.701 394.967 408.844 395.787 404.893C396.309 402.359 396.458 347.501 396.384 234.206L396.16 67.2453L394.446 63.2949C391.911 57.2575 389.452 53.7543 384.532 49.133C380.135 45.0335 374.321 41.5304 371.861 41.5304C371.265 41.5304 369.998 40.8595 369.103 40.0396C367.538 38.6234 367.464 37.8035 367.464 28.1884C367.464 21.0329 367.165 16.9335 366.346 14.7719C364.557 9.62893 360.383 3.96419 356.879 2.02626L353.674 0.162856L320.133 0.0137843C297.623 -0.0607517 285.772 0.162856 284.132 0.759145ZM343.239 78.7984C347.264 80.7363 352.78 86.1029 354.942 90.1278C356.283 92.7366 356.656 94.5255 356.656 99.2958C356.656 104.588 356.358 105.706 354.271 109.358C351.513 114.128 347.935 117.706 344.506 119.048C340.705 120.539 331.239 120.389 326.32 118.75C321.698 117.259 319.761 115.545 315.959 109.358C313.649 105.557 313.425 104.811 313.425 99.2958C313.425 93.7056 313.649 93.0347 316.183 88.8607C318.792 84.6122 324.307 79.6183 328.183 78.053C331.388 76.7859 339.96 77.2331 343.239 78.7984ZM219.062 91.0223C220.851 91.6931 223.833 92.2148 225.622 92.2148C227.485 92.2148 230.69 92.7366 232.852 93.4074C234.939 94.0782 238.144 95.1218 240.007 95.718C241.87 96.3143 245.075 97.5814 247.088 98.5504C249.175 99.5194 253.349 101.234 256.405 102.352C259.461 103.47 262.89 105.11 264.008 106.004C265.126 106.973 267.585 108.464 269.598 109.358C271.536 110.327 275.188 112.638 277.648 114.576C280.107 116.439 283.461 118.899 285.101 120.017C291.139 124.042 312.307 146.179 312.307 148.415C312.307 148.713 313.425 150.353 314.841 152.067C316.183 153.782 318.419 157.21 319.761 159.67C321.102 162.13 322.593 164.664 323.04 165.26C324.382 166.974 327.736 173.608 328.332 175.695C328.928 178.08 331.537 184.863 333.252 188.814C335.189 193.286 337.426 205.733 338.767 219.746C340.109 233.833 339.513 244.939 336.457 262.157C334.295 274.679 327.438 292.94 321.251 302.779C320.506 303.972 319.164 306.357 318.27 307.997C317.375 309.636 315.736 311.947 314.543 313.214C313.425 314.407 311.562 317.016 310.443 318.953C306.94 325.14 285.325 346.383 282.567 346.383C282.269 346.383 281.076 347.426 279.809 348.693C278.617 349.96 276.977 351.302 276.157 351.675C274.294 352.569 272.877 353.389 266.84 357.265C264.157 358.979 261.175 360.619 260.132 360.917C259.088 361.215 255.287 362.93 251.56 364.719C247.908 366.507 242.541 368.52 239.634 369.191C236.802 369.787 233.299 370.831 231.957 371.427C230.615 372.023 228.305 372.47 226.74 372.47C225.249 372.47 222.193 373.141 220.031 373.961C216.454 375.303 214.367 375.452 195.807 375.452C179.335 375.377 174.937 375.154 172.552 374.259C170.912 373.588 167.782 372.768 165.695 372.47C163.533 372.098 160.328 371.352 158.614 370.756C156.825 370.16 153.545 369.265 151.309 368.744C149.073 368.222 144.005 366.358 140.129 364.495C136.253 362.706 132.228 360.768 131.184 360.321C126.563 358.234 112.55 349.513 108.898 346.457C96.0779 335.5 90.0405 329.388 81.9161 319.177C77.8166 314.034 70.0649 301.587 67.6797 296.444C66.1144 293.015 61.9404 283.772 61.1205 281.909C59.4062 278.033 57.8409 271.772 54.4123 254.927C52.2507 244.268 52.1017 242.852 52.3253 229.957C52.5489 220.491 52.9961 214.827 53.816 211.472C54.4868 208.789 55.3813 204.913 55.7539 202.901C58.3627 190.006 58.8845 188.366 64.9964 174.204C68.8723 165.111 76.5495 151.993 80.2018 148.117C81.6179 146.626 82.736 145.21 82.736 144.837C82.736 143.794 93.7673 131.421 98.2395 127.545C104.277 122.178 110.389 117.259 112.923 115.694C114.19 114.874 116.054 113.532 117.172 112.638C118.29 111.743 120.749 110.253 122.762 109.284C124.7 108.389 127.383 106.898 128.576 105.929C129.843 105.035 132.004 103.842 133.42 103.246C153.247 94.8236 161.446 92.2148 167.633 92.2148C169.272 92.2148 171.956 91.7676 173.446 91.1713C178.068 89.3825 178.589 89.3079 197.521 89.6061C211.907 89.7552 216.454 90.1278 219.062 91.0223Z" fill="black"/>
<path d="M175.161 113.383C172.105 114.427 167.707 115.619 165.471 116.141C159.284 117.483 151.458 120.092 146.837 122.328C137.147 127.023 131.855 130.005 129.023 132.241C127.383 133.583 125.818 134.701 125.594 134.701C123.582 134.701 106.364 151.099 102.041 157.061C100.476 159.297 97.7923 163.024 96.1525 165.26C92.8729 169.733 92.8729 169.807 87.2827 180.466C85.1957 184.565 83.4814 188.292 83.4814 188.814C83.4814 190.23 79.7546 201.261 79.0092 202.156C77.2949 204.243 75.7296 219.001 75.7296 232.715C75.7296 248.443 77.0713 258.654 80.1272 265.959C81.0962 268.269 82.2888 271.772 82.8105 273.785C84.1522 279.002 85.8665 282.804 91.0095 291.823C96.6742 301.736 101.146 307.475 110.24 316.792C116.873 323.649 128.203 332.892 132.824 335.277C133.942 335.873 137.073 337.588 139.905 339.227C144.526 341.836 156.303 346.383 158.614 346.383C159.135 346.383 160.85 347.203 162.49 348.246C164.353 349.439 166.514 350.11 168.378 350.11C169.943 350.11 172.701 350.631 174.49 351.302C179.186 352.942 213.547 352.942 218.317 351.228C220.106 350.631 222.715 350.11 224.131 350.11C225.622 350.11 228.007 349.439 229.497 348.619C230.988 347.799 235.833 345.936 240.305 344.519C244.777 343.029 249.473 341.091 250.74 340.196C252.007 339.302 254.318 337.886 256.032 337.066C269.151 330.358 285.399 315.525 295.462 300.916C301.425 292.344 308.953 277.437 310.518 271.251C311.934 265.884 313.5 260.294 314.99 255.449C316.034 252.244 316.332 247.772 316.555 234.952C316.928 216.616 316.854 216.019 310.667 194.329C308.804 187.621 301.052 171.223 298.145 167.869C297.474 167.049 295.611 164.44 294.12 162.13C292.555 159.745 290.244 156.689 288.977 155.422C287.71 154.08 285.399 151.546 283.909 149.831C280.107 145.508 271.312 137.98 265.051 133.657C262.144 131.645 259.61 129.781 259.386 129.483C258.641 128.365 240.231 119.868 235.908 118.675C233.448 117.93 230.168 116.886 228.603 116.365C227.112 115.768 224.951 115.321 223.982 115.321C222.938 115.321 220.404 114.576 218.242 113.681C214.665 112.265 212.727 112.042 197.521 111.818C181.422 111.594 180.527 111.669 175.161 113.383ZM138.862 150.279C140.278 151.918 141.918 154.005 142.439 154.974C142.887 155.869 144.899 158.701 146.837 161.161C148.775 163.621 150.489 166.006 150.638 166.378C151.086 167.496 155.856 173.981 158.465 177.037L160.775 179.72L166.365 176.963C169.421 175.472 172.403 174.205 172.999 174.205C173.595 174.205 175.384 173.385 177.099 172.416C183.881 168.54 208.255 168.465 215.187 172.192C216.305 172.863 220.031 174.577 223.46 175.994C232.106 179.646 238.069 184.416 245.895 193.957C248.206 196.789 250.666 200.367 251.336 201.783C257.821 216.318 259.386 221.982 259.386 231.746C259.386 238.827 258.045 247.846 256.405 251.349C255.66 252.989 253.722 257.163 252.156 260.666C249.548 266.257 241.87 276.841 239.709 277.735C238.442 278.257 234.789 282.58 234.789 283.624C234.789 285.04 237.473 290.034 238.889 291.226C239.56 291.823 241.647 294.506 243.436 297.189C245.225 299.872 248.43 304.345 250.442 307.251C252.529 310.084 254.765 313.214 255.361 314.109C256.107 315.152 256.405 316.494 256.107 317.463C255.66 319.028 249.846 323.202 245.225 325.289C244.181 325.811 241.125 327.227 238.293 328.494C235.535 329.761 231.212 331.55 228.603 332.37C217.646 336.022 215.857 336.246 196.403 336.246C172.477 336.246 170.987 336.022 159.135 330.283C157.048 329.314 154.887 328.494 154.291 328.494C152.725 328.494 146.837 325.513 143.856 323.277C142.439 322.159 140.725 321.041 140.129 320.743C135.582 318.581 124.103 309.338 119.557 304.046C113.296 296.891 109.867 292.419 108.376 289.736C107.631 288.319 106.14 285.934 105.097 284.518C103.979 283.102 102.563 280.419 101.743 278.555C100.997 276.692 99.5066 273.039 98.314 270.356C92.8729 257.461 91.6803 250.679 91.6803 232.343C91.6803 215.274 93.3946 205.212 97.7177 196.342C98.5376 194.702 99.1339 193.137 99.1339 192.764C99.1339 190.23 108.227 174.354 113.445 167.869C118.141 162.055 127.309 152.738 129.694 151.471C130.737 150.949 132.228 149.831 132.973 148.937C134.986 146.775 135.88 146.925 138.862 150.279Z" fill="black"/>
<path d="M182.614 185.385C179.931 186.13 176.353 187.397 174.639 188.143C171.508 189.633 160.253 197.982 160.253 198.951C160.253 199.174 158.986 200.739 157.496 202.454C151.458 208.864 148.253 218.181 147.731 230.479C147.433 239.871 148.477 246.057 151.98 254.256C155.483 262.381 168.005 274.232 176.204 277.064C178.738 277.884 181.422 279.002 182.242 279.524C183.136 279.971 188.13 280.493 194.54 280.642C203.261 280.866 206.019 280.717 208.702 279.673C210.565 279.002 213.398 278.108 215.037 277.661C216.677 277.213 219.51 275.723 221.373 274.381C223.236 272.965 226.143 270.803 227.932 269.536C231.957 266.555 238.665 257.759 241.05 252.393C242.988 247.995 244.106 242.778 244.777 235.473C245.224 231.001 245.15 230.852 243.436 230.852C242.392 230.852 240.678 231.672 239.485 232.641C236.802 234.877 233.001 236.815 231.286 236.815C230.541 236.815 228.827 237.486 227.485 238.306C224.429 240.169 221.522 240.169 217.497 238.38C215.708 237.56 212.876 236.591 211.087 236.069C208.851 235.473 206.689 234.057 203.857 231.15C201.621 228.914 199.758 226.752 199.758 226.305C199.758 225.858 198.863 223.622 197.745 221.311C196.105 217.957 195.658 216.019 195.658 212.218C195.733 207.969 196.105 206.628 198.863 201.41C201.472 196.342 202.739 194.851 207.211 191.422C210.118 189.261 212.354 187.025 212.205 186.578C211.311 183.894 190.962 183.074 182.614 185.385Z" fill="black"/>
<path d="M536.216 461V314.72H639.026V344.39H575.316V380.5H632.126V410.17H575.316V461H536.216ZM659.751 461V314.72H698.851V428.8H754.741V461H659.751ZM838.206 461.92C822.872 461.92 809.609 459.007 798.416 453.18C787.376 447.2 778.866 438.69 772.886 427.65C766.906 416.61 763.916 403.423 763.916 388.09C763.916 372.757 766.906 359.57 772.886 348.53C778.866 337.337 787.376 328.75 798.416 322.77C809.609 316.79 822.872 313.8 838.206 313.8C853.539 313.8 866.572 316.79 877.306 322.77C888.192 328.75 896.472 337.337 902.146 348.53C907.819 359.57 910.656 372.757 910.656 388.09C910.656 411.09 904.292 429.183 891.566 442.37C878.992 455.403 861.206 461.92 838.206 461.92ZM838.206 428.8C848.632 428.8 856.529 425.427 861.896 418.68C867.416 411.78 870.176 401.66 870.176 388.32C870.176 374.98 867.416 364.783 861.896 357.73C856.529 350.523 848.632 346.92 838.206 346.92C827.779 346.92 819.499 350.523 813.366 357.73C807.386 364.783 804.396 374.98 804.396 388.32C804.396 401.66 807.386 411.78 813.366 418.68C819.499 425.427 827.779 428.8 838.206 428.8ZM949.749 461L915.249 314.72H957.799L975.739 410.17L976.199 415H977.579L978.039 410.17L1004.72 317.02H1036.92L1063.37 410.17L1064.29 415H1065.21L1065.67 410.17L1082.92 314.72H1125.47L1090.97 461H1043.82L1021.28 379.35L1020.59 374.29L1020.13 379.35L996.899 461H949.749Z" fill="black"/>
</svg>
