<svg width="1220" height="462" viewBox="0 0 1220 462" fill="none" xmlns="http://www.w3.org/2000/svg">
<path d="M31.0866 37.536C30.0431 37.8341 28.1797 38.654 26.9871 39.2503C25.8691 39.8466 23.2603 41.1137 21.1733 42.0082C17.5956 43.5734 6.63878 53.7103 6.63878 55.3501C6.63878 55.7973 5.66982 57.5117 4.47724 59.3005C-0.218529 66.456 -0.143993 64.2944 0.0796151 156.048C0.303223 248.324 -0.143993 240.05 5.66982 249.74C11.1855 258.833 18.49 265.02 27.5089 268.225C31.5338 269.716 35.4842 269.716 393.108 269.716H754.608L759.378 268.001C761.987 267.032 765.043 265.84 766.161 265.244C768.993 263.753 781.068 251.454 781.068 250.038C781.068 249.293 781.366 248.473 781.739 248.1C782.111 247.653 783.453 244.299 784.72 240.572L787.031 233.789V154.781C787.105 103.724 786.807 74.6549 786.36 72.5679C785.466 68.6175 783.006 61.4621 781.068 57.288C778.161 51.027 766.086 40.5174 761.838 40.5174C761.39 40.5174 759.751 39.7721 758.185 38.8031L755.353 37.1633L394.226 37.0142C195.588 36.9397 32.2046 37.1633 31.0866 37.536ZM419.941 86.8043C427.096 88.9659 435.146 91.8728 437.681 93.2144C438.799 93.8107 440.513 94.7051 441.482 95.2269C448.786 99.0282 459.669 109.761 464.737 118.184C470.104 127.128 471.073 129.588 472.787 138.085C475.396 150.831 475.098 158.359 471.296 173.192C469.06 181.838 463.992 190.558 456.836 198.087C451.693 203.453 444.091 209.714 442.674 209.714C442.153 209.714 440.886 210.31 439.842 211.13C435.295 214.261 428.364 217.168 422.475 218.286C409.879 220.671 403.021 221.193 395.195 220.298C379.095 218.435 369.853 215.677 363.666 210.907C363.07 210.385 361.281 209.342 359.641 208.596C356.66 207.031 345.032 197.341 345.032 196.372C345.032 196.074 343.616 193.987 341.902 191.751C337.355 185.863 334.597 179.9 330.945 167.676C329.007 161.266 328.709 145.39 330.423 140.247C331.02 138.458 331.69 135.849 331.988 134.433C333.256 128.321 338.771 117.588 343.616 111.774C346.225 108.569 353.902 101.339 357.331 98.8046C362.623 94.8542 364.188 93.9598 369.256 91.9473C371.716 90.9783 374.101 89.9348 374.474 89.7112C374.921 89.4131 376.412 88.8913 377.828 88.6677C379.244 88.3696 381.108 87.8478 381.928 87.4751C385.58 85.7608 389.456 85.3881 401.68 85.3136C413.009 85.2391 415.394 85.4627 419.941 86.8043ZM691.401 86.8043C711.526 92.9163 722.259 99.6245 732.172 111.997C736.048 116.842 740.073 123.401 740.073 124.743C740.073 125.19 740.744 126.905 741.564 128.694C747.601 141.812 747.601 163.725 741.564 177.291C735.303 191.229 734.93 191.826 725.39 201.143C719.427 206.956 717.116 208.522 705.787 214.261C696.768 218.808 678.879 221.565 666.953 220.298C652.568 218.733 644.891 216.795 639.077 213.143C637.064 211.801 633.859 210.012 631.996 209.043C625.884 205.913 615.523 195.329 610.157 186.683C606.132 180.198 603.821 173.415 602.107 162.384C600.616 153.067 600.542 152.396 601.734 145.241C603.97 131.675 605.387 127.426 610.38 118.78C617.238 107.078 631.847 94.6306 642.804 91.2019C644.443 90.6802 646.158 90.0094 646.53 89.7112C646.978 89.4131 648.767 88.8168 650.63 88.3696C652.493 87.9224 655.326 87.1025 656.965 86.4316C659.202 85.6117 663.152 85.3136 673.14 85.2391C684.469 85.2391 687.078 85.4627 691.401 86.8043ZM126.642 88.9659C128.058 89.3385 131.263 90.1584 133.723 90.8293C136.182 91.5001 138.866 92.32 139.686 92.6181C145.947 95.3014 147.735 96.3449 152.208 99.699C161.226 106.482 167.338 117.588 168.382 128.843C169.053 135.774 168.382 147.104 166.966 151.427C164.133 160.52 154.22 171.775 144.903 176.546C133.201 182.583 124.331 184.297 105.026 184.372C87.0631 184.372 88.4793 182.881 88.7029 201.59C88.852 211.056 88.6284 216.721 88.1066 217.242C86.9141 218.435 53.5965 218.286 52.4039 217.019C51.584 216.273 51.4349 203.677 51.2859 153.141C51.2113 93.2889 51.2859 90.1584 52.553 89.1895C53.5965 88.4441 61.1246 88.2205 88.9265 88.2205C108.455 88.2205 125.226 88.5932 126.642 88.9659ZM222.421 88.9659L224.358 89.7112L224.284 112.147C224.209 124.52 224.508 134.955 224.88 135.327C225.775 136.222 271.912 136.296 272.881 135.327C273.403 134.806 273.627 126.607 273.552 112.594C273.403 93.2144 273.552 90.5311 274.596 89.4131C275.639 88.3696 278.099 88.2205 292.037 88.2205C303.888 88.2205 308.584 88.4441 309.479 89.1895C310.746 90.0094 310.82 94.2579 310.746 152.62C310.746 191.975 310.448 215.603 310 216.422C309.33 217.69 307.839 217.839 292.708 218.062C277.205 218.286 276.012 218.211 274.819 216.944C273.627 215.677 273.478 213.366 273.478 192.273C273.478 175.204 273.254 168.794 272.583 168.123C271.465 167.005 229.129 166.856 226.222 167.974L224.284 168.719V192.049C224.284 210.236 224.06 215.677 223.315 216.721C222.421 217.988 220.855 218.062 205.277 218.062C189.848 217.988 188.059 217.839 187.24 216.721C186.494 215.677 186.271 202.484 186.271 152.62C186.271 93.5871 186.345 89.7112 187.612 89.0404C189.252 88.0714 219.812 87.9969 222.421 88.9659ZM595.399 89.4131C597.113 90.6056 597.113 90.7547 596.889 102.904C596.591 114.159 596.442 115.277 595.101 116.246C593.908 117.14 590.479 117.364 576.467 117.29C567.075 117.215 558.951 117.215 558.503 117.215C557.982 117.29 557.385 117.886 557.162 118.557C556.864 119.227 556.64 141.29 556.715 167.601C556.715 205.689 556.565 215.603 555.746 216.646C554.926 217.913 553.286 217.988 538.081 217.988C523.024 217.988 521.235 217.839 520.416 216.721C519.67 215.677 519.447 205.168 519.447 167.154C519.447 125.563 519.297 118.855 518.329 118.035C517.509 117.364 512.589 117.14 499.769 117.215C477.408 117.364 479.197 118.631 479.197 102.606C479.197 92.7672 479.421 90.7547 480.464 89.5621C481.582 88.295 484.34 88.2205 537.633 88.2205C588.169 88.2205 593.833 88.3696 595.399 89.4131Z" fill="black"/>
<path d="M390.499 117.811C384.387 119.973 382.151 121.389 377.53 125.936C371.791 131.675 369.927 135.402 368.064 144.942C366.648 152.172 366.648 152.843 367.84 159.626C368.511 163.502 369.704 168.198 370.449 170.061C372.163 174.086 378.126 181.39 381.182 183.328C385.133 185.788 390.127 188.099 391.319 188.099C391.99 188.099 394.002 188.769 395.791 189.589C399.965 191.453 402.872 191.453 407.643 189.589C409.73 188.769 412.189 188.099 413.158 188.099C414.127 188.099 416.14 187.279 417.63 186.235C419.121 185.192 420.612 184.372 420.91 184.372C421.208 184.372 422.997 183.03 424.935 181.39C429.183 177.738 434.774 168.272 435.892 162.905C437.755 154.036 436.264 139.427 433.059 135.104C432.165 133.986 431.494 132.793 431.494 132.495C431.494 131.824 426.575 125.861 424.115 123.476C421.581 121.091 418.599 119.526 413.605 117.886C408.239 116.171 395.344 116.171 390.499 117.811Z" fill="black"/>
<path d="M661.14 117.96C657.04 119.302 647.723 126.085 646.158 128.842C645.04 130.93 643.773 133.017 642.282 135.178C638.928 140.097 637.735 155.005 639.897 164.247C641.238 169.986 646.232 177.887 650.854 181.614C655.698 185.564 669.115 191.08 673.736 191.08C675.972 191.08 683.649 188.62 689.687 185.937C701.911 180.57 708.843 166.632 707.874 149.564C707.203 138.979 704.669 132.718 698.482 126.383C693.935 121.687 691.401 120.047 685.289 117.886C680.295 116.097 666.879 116.171 661.14 117.96Z" fill="black"/>
<path d="M90.1191 118.035C88.703 119.451 88.6284 120.494 88.6284 136.296C88.6284 152.098 88.703 153.067 90.0446 153.812C90.8645 154.259 96.6038 154.557 103.387 154.557C114.418 154.557 115.536 154.408 120.008 152.619C126.269 150.085 129.847 146.284 131.039 140.619C132.605 133.836 130.741 127.277 126.045 122.507C123.288 119.824 120.157 117.811 119.337 118.333C118.965 118.556 116.878 118.258 114.641 117.662C112.182 116.991 106.964 116.544 101.15 116.544C92.5788 116.544 91.4608 116.693 90.1191 118.035Z" fill="black"/>
<path d="M1107.13 0.759145C1103.93 1.72811 1098.64 7.02017 1096.62 11.1942C1095.28 14.0266 1095.06 15.7409 1095.06 25.2815C1095.06 34.4494 1094.83 36.3128 1093.79 37.1327C1092.82 38.0272 1074.04 38.1017 976.247 37.9526C851.474 37.6545 859.375 37.5054 848.716 41.2322C836.343 45.5553 825.461 59.1209 823.746 72.3137C822.703 80.0655 822.777 395.278 823.821 401.465C825.759 413.614 834.48 424.795 846.703 430.907L853.486 434.335H1021.71L1189.94 434.261L1197.1 430.757C1203.73 427.478 1207.76 424.273 1212.38 418.608C1214.76 415.701 1217.97 408.844 1218.79 404.893C1219.31 402.359 1219.46 347.501 1219.38 234.206L1219.16 67.2453L1217.45 63.2949C1214.91 57.2575 1212.45 53.7543 1207.53 49.133C1203.13 45.0335 1197.32 41.5304 1194.86 41.5304C1194.26 41.5304 1193 40.8595 1192.1 40.0396C1190.54 38.6234 1190.46 37.8035 1190.46 28.1884C1190.46 21.0329 1190.17 16.9335 1189.35 14.7719C1187.56 9.62893 1183.38 3.96419 1179.88 2.02626L1176.67 0.162856L1143.13 0.0137843C1120.62 -0.0607517 1108.77 0.162856 1107.13 0.759145ZM1166.24 78.7984C1170.26 80.7363 1175.78 86.1029 1177.94 90.1278C1179.28 92.7366 1179.66 94.5255 1179.66 99.2958C1179.66 104.588 1179.36 105.706 1177.27 109.358C1174.51 114.128 1170.94 117.706 1167.51 119.048C1163.71 120.539 1154.24 120.389 1149.32 118.75C1144.7 117.259 1142.76 115.545 1138.96 109.358C1136.65 105.557 1136.42 104.811 1136.42 99.2958C1136.42 93.7056 1136.65 93.0347 1139.18 88.8607C1141.79 84.6122 1147.31 79.6183 1151.18 78.053C1154.39 76.7859 1162.96 77.2331 1166.24 78.7984ZM1042.06 91.0223C1043.85 91.6931 1046.83 92.2148 1048.62 92.2148C1050.48 92.2148 1053.69 92.7366 1055.85 93.4074C1057.94 94.0782 1061.14 95.1218 1063.01 95.718C1064.87 96.3143 1068.08 97.5814 1070.09 98.5504C1072.17 99.5194 1076.35 101.234 1079.4 102.352C1082.46 103.47 1085.89 105.11 1087.01 106.004C1088.13 106.973 1090.59 108.464 1092.6 109.358C1094.54 110.327 1098.19 112.638 1100.65 114.576C1103.11 116.439 1106.46 118.899 1108.1 120.017C1114.14 124.042 1135.31 146.179 1135.31 148.415C1135.31 148.713 1136.42 150.353 1137.84 152.067C1139.18 153.782 1141.42 157.21 1142.76 159.67C1144.1 162.13 1145.59 164.664 1146.04 165.26C1147.38 166.974 1150.74 173.608 1151.33 175.695C1151.93 178.08 1154.54 184.863 1156.25 188.814C1158.19 193.286 1160.43 205.733 1161.77 219.746C1163.11 233.833 1162.51 244.939 1159.46 262.157C1157.3 274.679 1150.44 292.94 1144.25 302.779C1143.51 303.972 1142.16 306.357 1141.27 307.997C1140.38 309.636 1138.74 311.947 1137.54 313.214C1136.42 314.407 1134.56 317.016 1133.44 318.953C1129.94 325.14 1108.32 346.383 1105.57 346.383C1105.27 346.383 1104.08 347.426 1102.81 348.693C1101.62 349.96 1099.98 351.302 1099.16 351.675C1097.29 352.569 1095.88 353.389 1089.84 357.265C1087.16 358.979 1084.18 360.619 1083.13 360.917C1082.09 361.215 1078.29 362.93 1074.56 364.719C1070.91 366.507 1065.54 368.52 1062.63 369.191C1059.8 369.787 1056.3 370.831 1054.96 371.427C1053.62 372.023 1051.3 372.47 1049.74 372.47C1048.25 372.47 1045.19 373.141 1043.03 373.961C1039.45 375.303 1037.37 375.452 1018.81 375.452C1002.33 375.377 997.937 375.154 995.552 374.259C993.912 373.588 990.782 372.768 988.695 372.47C986.533 372.098 983.328 371.352 981.614 370.756C979.825 370.16 976.545 369.265 974.309 368.744C972.073 368.222 967.005 366.358 963.129 364.495C959.253 362.706 955.228 360.768 954.184 360.321C949.563 358.234 935.55 349.513 931.898 346.457C919.078 335.5 913.041 329.388 904.916 319.177C900.817 314.034 893.065 301.587 890.68 296.444C889.114 293.015 884.94 283.772 884.121 281.909C882.406 278.033 880.841 271.772 877.412 254.927C875.251 244.268 875.102 242.852 875.325 229.957C875.549 220.491 875.996 214.827 876.816 211.472C877.487 208.789 878.381 204.913 878.754 202.901C881.363 190.006 881.884 188.366 887.996 174.204C891.872 165.111 899.549 151.993 903.202 148.117C904.618 146.626 905.736 145.21 905.736 144.837C905.736 143.794 916.767 131.421 921.239 127.545C927.277 122.178 933.389 117.259 935.923 115.694C937.19 114.874 939.054 113.532 940.172 112.638C941.29 111.743 943.749 110.253 945.762 109.284C947.7 108.389 950.383 106.898 951.576 105.929C952.843 105.035 955.004 103.842 956.42 103.246C976.247 94.8236 984.446 92.2148 990.633 92.2148C992.272 92.2148 994.956 91.7676 996.446 91.1713C1001.07 89.3825 1001.59 89.3079 1020.52 89.6061C1034.91 89.7552 1039.45 90.1278 1042.06 91.0223Z" fill="black"/>
<path d="M998.161 113.383C995.105 114.427 990.707 115.619 988.471 116.141C982.284 117.483 974.458 120.092 969.837 122.328C960.147 127.023 954.855 130.005 952.023 132.241C950.383 133.583 948.818 134.701 948.594 134.701C946.582 134.701 929.364 151.099 925.041 157.061C923.476 159.297 920.792 163.024 919.152 165.26C915.873 169.733 915.873 169.807 910.283 180.466C908.196 184.565 906.481 188.292 906.481 188.814C906.481 190.23 902.755 201.261 902.009 202.156C900.295 204.243 898.73 219.001 898.73 232.715C898.73 248.443 900.071 258.654 903.127 265.959C904.096 268.269 905.289 271.772 905.811 273.785C907.152 279.002 908.867 282.804 914.009 291.823C919.674 301.736 924.146 307.475 933.24 316.792C939.873 323.649 951.203 332.892 955.824 335.277C956.942 335.873 960.073 337.588 962.905 339.227C967.526 341.836 979.303 346.383 981.614 346.383C982.135 346.383 983.85 347.203 985.49 348.246C987.353 349.439 989.514 350.11 991.378 350.11C992.943 350.11 995.701 350.631 997.49 351.302C1002.19 352.942 1036.55 352.942 1041.32 351.228C1043.11 350.631 1045.71 350.11 1047.13 350.11C1048.62 350.11 1051.01 349.439 1052.5 348.619C1053.99 347.799 1058.83 345.936 1063.31 344.519C1067.78 343.029 1072.47 341.091 1073.74 340.196C1075.01 339.302 1077.32 337.886 1079.03 337.066C1092.15 330.358 1108.4 315.525 1118.46 300.916C1124.42 292.344 1131.95 277.437 1133.52 271.251C1134.93 265.884 1136.5 260.294 1137.99 255.449C1139.03 252.244 1139.33 247.772 1139.56 234.952C1139.93 216.616 1139.85 216.019 1133.67 194.329C1131.8 187.621 1124.05 171.223 1121.15 167.869C1120.47 167.049 1118.61 164.44 1117.12 162.13C1115.55 159.745 1113.24 156.689 1111.98 155.422C1110.71 154.08 1108.4 151.546 1106.91 149.831C1103.11 145.508 1094.31 137.98 1088.05 133.657C1085.14 131.645 1082.61 129.781 1082.39 129.483C1081.64 128.365 1063.23 119.868 1058.91 118.675C1056.45 117.93 1053.17 116.886 1051.6 116.365C1050.11 115.768 1047.95 115.321 1046.98 115.321C1045.94 115.321 1043.4 114.576 1041.24 113.681C1037.66 112.265 1035.73 112.042 1020.52 111.818C1004.42 111.594 1003.53 111.669 998.161 113.383ZM961.862 150.279C963.278 151.918 964.918 154.005 965.439 154.974C965.887 155.869 967.899 158.701 969.837 161.161C971.775 163.621 973.489 166.006 973.638 166.378C974.086 167.496 978.856 173.981 981.465 177.037L983.775 179.72L989.365 176.963C992.421 175.472 995.403 174.205 995.999 174.205C996.595 174.205 998.384 173.385 1000.1 172.416C1006.88 168.54 1031.25 168.465 1038.19 172.192C1039.3 172.863 1043.03 174.577 1046.46 175.994C1055.11 179.646 1061.07 184.416 1068.9 193.957C1071.21 196.789 1073.67 200.367 1074.34 201.783C1080.82 216.318 1082.39 221.982 1082.39 231.746C1082.39 238.827 1081.04 247.846 1079.4 251.349C1078.66 252.989 1076.72 257.163 1075.16 260.666C1072.55 266.257 1064.87 276.841 1062.71 277.735C1061.44 278.257 1057.79 282.58 1057.79 283.624C1057.79 285.04 1060.47 290.034 1061.89 291.226C1062.56 291.823 1064.65 294.506 1066.44 297.189C1068.22 299.872 1071.43 304.345 1073.44 307.251C1075.53 310.084 1077.77 313.214 1078.36 314.109C1079.11 315.152 1079.4 316.494 1079.11 317.463C1078.66 319.028 1072.85 323.202 1068.22 325.289C1067.18 325.811 1064.13 327.227 1061.29 328.494C1058.53 329.761 1054.21 331.55 1051.6 332.37C1040.65 336.022 1038.86 336.246 1019.4 336.246C995.477 336.246 993.987 336.022 982.135 330.283C980.048 329.314 977.887 328.494 977.291 328.494C975.725 328.494 969.837 325.513 966.856 323.277C965.439 322.159 963.725 321.041 963.129 320.742C958.582 318.581 947.103 309.338 942.557 304.046C936.296 296.891 932.867 292.419 931.376 289.736C930.631 288.319 929.14 285.934 928.097 284.518C926.979 283.102 925.563 280.419 924.743 278.555C923.997 276.692 922.507 273.039 921.314 270.356C915.873 257.461 914.68 250.679 914.68 232.343C914.68 215.274 916.395 205.212 920.718 196.342C921.538 194.702 922.134 193.137 922.134 192.764C922.134 190.23 931.227 174.354 936.445 167.869C941.141 162.055 950.309 152.738 952.694 151.471C953.737 150.949 955.228 149.831 955.973 148.937C957.986 146.775 958.88 146.924 961.862 150.279Z" fill="black"/>
<path d="M1005.61 185.385C1002.93 186.13 999.353 187.397 997.639 188.143C994.508 189.633 983.253 197.982 983.253 198.951C983.253 199.174 981.986 200.739 980.496 202.454C974.458 208.864 971.253 218.181 970.731 230.479C970.433 239.871 971.477 246.057 974.98 254.256C978.483 262.381 991.005 274.232 999.204 277.064C1001.74 277.884 1004.42 279.002 1005.24 279.524C1006.14 279.971 1011.13 280.493 1017.54 280.642C1026.26 280.866 1029.02 280.717 1031.7 279.673C1033.57 279.002 1036.4 278.108 1038.04 277.661C1039.68 277.213 1042.51 275.723 1044.37 274.381C1046.24 272.965 1049.14 270.803 1050.93 269.536C1054.96 266.555 1061.67 257.759 1064.05 252.393C1065.99 247.995 1067.11 242.778 1067.78 235.473C1068.22 231.001 1068.15 230.852 1066.44 230.852C1065.39 230.852 1063.68 231.672 1062.49 232.641C1059.8 234.877 1056 236.815 1054.29 236.815C1053.54 236.815 1051.83 237.486 1050.48 238.306C1047.43 240.169 1044.52 240.169 1040.5 238.38C1038.71 237.56 1035.88 236.591 1034.09 236.069C1031.85 235.473 1029.69 234.057 1026.86 231.15C1024.62 228.914 1022.76 226.752 1022.76 226.305C1022.76 225.858 1021.86 223.622 1020.75 221.311C1019.11 217.957 1018.66 216.019 1018.66 212.218C1018.73 207.969 1019.11 206.628 1021.86 201.41C1024.47 196.342 1025.74 194.851 1030.21 191.422C1033.12 189.261 1035.35 187.025 1035.21 186.578C1034.31 183.894 1013.96 183.074 1005.61 185.385Z" fill="black"/>
<path d="M102.216 461V314.72H205.026V344.39H141.316V380.5H198.126V410.17H141.316V461H102.216ZM225.751 461V314.72H264.851V428.8H320.741V461H225.751ZM404.206 461.92C388.872 461.92 375.609 459.007 364.416 453.18C353.376 447.2 344.866 438.69 338.886 427.65C332.906 416.61 329.916 403.423 329.916 388.09C329.916 372.757 332.906 359.57 338.886 348.53C344.866 337.337 353.376 328.75 364.416 322.77C375.609 316.79 388.872 313.8 404.206 313.8C419.539 313.8 432.572 316.79 443.306 322.77C454.192 328.75 462.472 337.337 468.146 348.53C473.819 359.57 476.656 372.757 476.656 388.09C476.656 411.09 470.292 429.183 457.566 442.37C444.992 455.403 427.206 461.92 404.206 461.92ZM404.206 428.8C414.632 428.8 422.529 425.427 427.896 418.68C433.416 411.78 436.176 401.66 436.176 388.32C436.176 374.98 433.416 364.783 427.896 357.73C422.529 350.523 414.632 346.92 404.206 346.92C393.779 346.92 385.499 350.523 379.366 357.73C373.386 364.783 370.396 374.98 370.396 388.32C370.396 401.66 373.386 411.78 379.366 418.68C385.499 425.427 393.779 428.8 404.206 428.8ZM515.749 461L481.249 314.72H523.799L541.739 410.17L542.199 415H543.579L544.039 410.17L570.719 317.02H602.919L629.369 410.17L630.289 415H631.209L631.669 410.17L648.919 314.72H691.469L656.969 461H609.819L587.279 379.35L586.589 374.29L586.129 379.35L562.899 461H515.749Z" fill="black"/>
</svg>
