<svg width="878" height="690" viewBox="0 0 878 690" fill="none" xmlns="http://www.w3.org/2000/svg">
<path d="M323.525 2.40008C312.725 7.46675 307.792 15.6001 307.792 28.0001C307.792 41.6001 312.459 48.9334 325.392 55.4667L331.659 58.6667H437.392H543.125L551.259 54.8001C560.859 50.2667 564.459 46.1334 567.392 36.1334C569.125 30.0001 569.259 27.6001 567.925 22.6667C565.792 14.2667 560.059 6.66675 553.259 3.06675L547.392 7.83205e-05H437.925C336.725 0.133412 328.059 0.266745 323.525 2.40008Z" fill="black"/>
<path d="M107.792 90.2663C105.926 90.6663 99.1255 92.3996 92.5922 94.2663C55.9255 104.666 26.1922 130.933 10.3255 166.666C-0.0745026 190.133 0.592164 174.4 0.192164 384.933C-0.207836 571.6 -0.207836 573.466 2.45883 586.933C7.65883 612.4 18.7255 632.4 38.3255 652.133C51.5255 665.2 57.2588 669.466 73.1255 677.066C92.1922 686.266 103.659 688.266 138.859 689.066C173.126 689.733 177.926 688.933 186.192 681.866C192.859 676.266 196.326 666.133 194.992 656.266C193.926 648.133 190.859 642.8 184.859 638.4C175.526 631.466 171.126 630.666 142.059 630.666C110.326 630.666 104.192 629.333 89.1255 619.333C75.3922 610.266 64.0588 594.533 59.9255 579.333C58.9922 575.733 58.4588 514.266 58.3255 388.666C58.1922 185.066 57.5255 201.2 66.0588 184.4C72.9922 170.4 91.2588 155.333 106.992 150.4C114.726 148 122.592 148 289.792 148C473.392 148.133 472.726 148 495.792 154C516.059 159.2 523.126 161.866 547.792 173.733C582.059 190.133 617.126 221.6 640.059 256.533C654.859 278.933 667.659 308.266 672.326 330C673.659 335.866 675.659 344.266 676.726 348.666C679.392 358.8 680.592 400.4 678.726 416C676.059 437.6 668.192 468.933 664.059 473.6C662.992 474.933 660.059 476.533 657.526 477.2C650.326 479.2 638.192 487.733 633.259 494.4C623.926 506.933 620.592 522.666 624.459 537.2C628.192 551.866 638.192 563.866 652.326 570.666C659.526 574.266 661.792 574.666 672.459 574.666C682.992 574.666 685.526 574.133 692.726 570.8C716.459 559.466 727.526 534.666 719.792 509.866L716.726 500.133L719.659 492.4C723.526 482.533 729.926 459.6 732.459 446.666C739.259 411.466 738.992 364.533 731.926 328.666C728.592 312.266 717.392 277.066 713.126 269.733C712.459 268.4 710.059 263.466 707.792 258.666C702.592 247.066 695.259 233.733 692.592 230.8C691.392 229.466 690.459 227.866 690.459 227.2C690.459 226.533 688.326 223.333 685.792 220.133C683.259 216.933 681.126 213.866 681.126 213.2C681.126 212.666 676.459 206.533 670.592 199.6C648.059 172.533 626.192 153.2 597.659 135.066C587.659 128.666 561.392 114.666 559.392 114.666C558.859 114.666 554.726 112.933 550.192 110.8C545.526 108.533 537.526 105.6 532.326 104.266C526.992 102.8 521.659 101.066 520.326 100.266C518.859 99.5996 511.259 97.733 503.126 96.133C495.126 94.6663 485.126 92.6663 481.126 91.733C475.659 90.6663 427.659 90.133 292.459 89.8663C192.725 89.733 109.659 89.8663 107.792 90.2663Z" fill="black"/>
<path d="M697.792 91.1997C693.392 93.0663 686.325 99.733 682.725 105.066C681.392 107.2 680.592 111.333 680.592 117.2C680.459 129.2 685.125 137.2 695.792 143.066L703.125 147.2L731.792 147.733C750.059 148.133 763.125 148.933 767.659 150.133C791.525 156.266 813.525 181.2 817.125 206.266C818.992 219.466 818.859 559.866 816.992 572.4C814.192 590.8 802.592 608.533 786.725 619.2C768.592 631.2 789.792 630 589.792 630.4C433.926 630.666 410.859 630.533 399.259 628.666C382.992 626 360.592 619.733 349.392 614.533C344.726 612.4 340.459 610.666 339.659 610.666C337.126 610.666 314.859 598.4 303.126 590.4C268.059 566.666 241.526 536.666 222.592 499.333C209.526 473.866 203.926 456.4 197.792 422.533C194.192 402.133 195.526 365.466 200.859 340C204.859 321.066 208.859 308.133 211.792 304.666C212.592 303.733 214.592 302.533 216.192 302.133C222.726 300.533 234.726 292.8 240.326 286.533C248.726 277.2 252.326 267.466 252.326 254C252.459 234.133 243.659 219.333 225.792 209.2C218.459 205.066 216.726 204.666 204.459 204.266C192.859 203.733 190.192 204.133 185.126 206.533C170.992 213.2 158.992 225.866 155.526 237.733C153.126 246.266 153.392 260.933 156.326 270.133C158.726 278 158.726 278.666 156.459 285.466C155.126 289.466 153.659 293.2 153.126 294C151.792 295.6 143.392 330.133 140.992 344C138.459 357.6 138.459 422.4 140.859 435.333C148.992 478.133 160.192 509.333 179.659 542.666C187.526 556.133 190.459 560.266 204.459 577.866C215.926 592.4 234.592 611.733 243.126 618C246.059 620.133 249.126 622.533 249.792 623.333C251.792 625.333 268.592 637.466 277.126 642.933C312.459 665.466 349.259 679.333 392.459 686.266C406.059 688.533 420.592 688.666 586.459 688.666C790.192 688.666 776.059 689.466 801.792 677.333C840.459 659.2 865.792 626 873.925 582.8L876.992 566L877.125 389.333C877.125 216.933 876.992 212.266 874.459 198C871.259 180.8 868.992 173.733 863.659 162.666C846.459 127.2 815.925 102.533 777.259 92.7997C764.325 89.5997 761.392 89.333 732.592 89.333C710.059 89.4663 700.725 89.8663 697.792 91.1997Z" fill="black"/>
<path d="M417.792 197.6C382.992 202.8 357.659 212 331.792 228.8C303.125 247.333 276.992 278 263.125 309.067C252.859 332.267 248.459 349.333 246.592 372.533C244.859 392.4 246.325 419.067 249.792 430.667C250.725 434 252.459 440.267 253.792 444.667C265.659 486.667 295.125 526.133 333.125 550.8C354.725 564.8 376.325 573.2 404.859 578.667C428.592 583.2 444.325 583.733 459.925 580.8C465.392 579.733 475.525 577.867 482.459 576.533C489.392 575.333 496.325 573.467 497.792 572.667C499.259 571.733 503.525 570.133 507.259 568.8C540.059 558 581.525 523.467 601.925 490C613.925 470.4 623.525 444.667 627.392 422C630.059 406 630.059 370.933 627.259 356C625.392 345.733 624.192 341.067 619.392 324.667C617.392 318.133 608.192 299.2 602.192 289.333C585.525 261.733 558.859 236.267 529.792 220.267C497.525 202.267 450.192 192.667 417.792 197.6ZM457.125 256.667C477.125 258.667 500.992 268.4 518.725 282C544.992 302.267 561.792 328.933 569.792 363.333C573.392 378.267 572.192 413.067 567.792 423.333C567.125 424.8 565.659 429.467 564.459 433.867C557.659 458.667 528.992 493.6 506.459 504.667C503.925 506 500.859 507.733 499.792 508.667C498.725 509.6 496.325 510.8 494.459 511.333C492.592 511.867 488.192 513.733 484.459 515.467C468.325 522.8 435.525 525.333 410.992 520.933C375.392 514.533 337.792 487.2 321.792 456.267C319.525 452 316.725 446.8 315.392 444.8C314.059 442.8 311.925 436.933 310.459 431.6C309.125 426.267 307.125 419.867 306.192 417.333C304.992 414.133 304.459 405.467 304.459 389.333C304.459 366.933 304.725 365.467 308.725 352.533C316.725 326.933 326.592 310.667 344.859 293.067C369.259 269.467 394.992 258 429.125 255.467C435.525 255.067 442.859 255.333 457.125 256.667Z" fill="black"/>
</svg>
