<svg width="1972" height="690" viewBox="0 0 1972 690" fill="none" xmlns="http://www.w3.org/2000/svg">
<path d="M1074.15 611V517.9H1045.1V473.8H1074.15V453.5C1074.15 437.4 1077.42 424.1 1083.95 413.6C1090.72 403.1 1099.82 395.283 1111.25 390.15C1122.69 385.017 1135.64 382.45 1150.1 382.45C1159.67 382.45 1170.17 383.617 1181.6 385.95C1193.04 388.05 1203.07 391.667 1211.7 396.8L1198.75 437.75C1193.85 434.717 1188.14 432.5 1181.6 431.1C1175.07 429.467 1168.65 428.65 1162.35 428.65C1140.65 428.65 1129.8 437.517 1129.8 455.25V473.45H1187.9V517.9H1131.9V611H1074.15ZM1236.25 611V383.5H1292.25V611H1236.25ZM1418.17 614.15C1398.8 614.15 1382 610.3 1367.77 602.6C1353.77 594.9 1342.92 583.933 1335.22 569.7C1327.52 555.467 1323.67 538.667 1323.67 519.3C1323.67 490.133 1332.07 467.733 1348.87 452.1C1365.9 436.233 1388.77 428.3 1417.47 428.3C1446.17 428.3 1469.04 436.233 1486.07 452.1C1503.1 467.967 1511.62 490.6 1511.62 520C1511.62 539.133 1507.89 555.817 1500.42 570.05C1492.95 584.05 1482.22 594.9 1468.22 602.6C1454.22 610.3 1437.54 614.15 1418.17 614.15ZM1418.17 567.25C1429.84 567.25 1438.7 562.933 1444.77 554.3C1451.07 545.667 1454.22 534.233 1454.22 520C1454.22 504.833 1450.84 493.517 1444.07 486.05C1437.54 478.35 1428.67 474.5 1417.47 474.5C1406.27 474.5 1397.29 478.35 1390.52 486.05C1383.99 493.517 1380.72 504.717 1380.72 519.65C1380.72 534.117 1384.1 545.667 1390.87 554.3C1397.64 562.933 1406.74 567.25 1418.17 567.25ZM1567.15 611L1529.35 431.8H1585.35L1606.7 551.15L1639.95 435.3H1695.95L1729.2 551.15L1750.55 431.8H1806.55L1768.75 611H1699.1L1668.65 503.2L1667.95 499.7L1667.25 503.2L1636.8 611H1567.15Z" fill="black"/>
<path d="M913.467 91.8666C912.4 93.0666 912 128.933 912 222.4V351.333L915.067 352C916.667 352.4 930.267 352.533 945.333 352.4L972.667 352L973.333 316.667L974 281.333L1010 280.4C1030.53 279.867 1050.8 278.667 1057.33 277.6C1072.27 275.067 1096.13 266 1100 261.333C1100.93 260.267 1102.27 259.333 1103.07 259.333C1104.93 259.333 1115.73 249.2 1121.47 242C1128.27 233.6 1135.2 218.8 1137.2 208.667C1139.47 197.733 1139.47 171.467 1137.33 161.333C1134.93 149.6 1125.33 131.867 1116.27 122.533C1107.33 113.2 1100 108 1088 102.4C1076.93 97.1999 1077.07 97.1999 1058.8 93.3333C1043.6 90.1333 1042.27 89.9999 979.2 89.9999C926.8 89.9999 914.667 90.2666 913.467 91.8666ZM1039.6 141.333C1060 144.8 1070.27 153.333 1076 171.2C1079.33 182 1079.33 188.667 1075.87 199.733C1072.4 210.933 1065.6 218.8 1054.4 224.4C1043.47 230 1030.53 231.6 998.667 231.067L974 230.667L973.6 186.133C973.333 151.333 973.733 141.333 974.933 140.4C978 138.533 1027.73 139.2 1039.6 141.333Z" fill="black"/>
<path d="M1163.2 91.6C1162.53 92.6666 1162.27 148.133 1162.67 222.667L1163.33 352H1191.33H1219.33L1220 294.667C1220.8 233.333 1220.53 235.2 1228 220.667C1233.87 209.2 1246.4 201.2 1261.6 199.067C1282 196.267 1297.73 204.267 1305.6 221.333C1308.67 227.867 1308.67 228.8 1309.33 290L1310 352L1337.87 352.4C1353.73 352.533 1366.27 352.133 1367.2 351.467C1368.27 350.533 1368.4 332.133 1367.87 283.067C1367.07 208.133 1366.8 205.333 1357.73 187.6C1348.67 170 1329.73 155.333 1309.33 150.533C1300.4 148.4 1270.67 148.133 1261.07 150.133C1251.73 152.133 1232.93 160.933 1227.07 166.133C1224.4 168.4 1221.87 169.733 1221.2 169.067C1220.53 168.4 1219.87 150.533 1219.73 129.333L1219.33 90.6666L1191.87 90.2666C1170.8 90 1164.13 90.4 1163.2 91.6Z" fill="black"/>
<path d="M1637.2 107.6C1637.2 108.533 1637.2 118.133 1637.33 128.8C1637.47 143.866 1637.2 148.666 1635.73 149.466C1634.8 150.133 1628.8 150.4 1622.4 150.266C1604.8 149.6 1605.33 148.8 1605.33 173.2C1605.33 190.666 1605.6 193.866 1607.47 194.533C1608.67 194.933 1614.8 195.333 1621.07 195.333C1627.47 195.333 1633.6 196 1634.67 196.666C1636.4 197.733 1636.8 205.866 1637.47 251.6C1638.27 308 1638.4 310 1644.8 322.133C1650.67 333.733 1662.67 344.266 1675.07 348.933C1691.47 355.2 1713.47 358.133 1723.87 355.466C1726.53 354.8 1732.93 353.2 1738 351.866C1751.07 348.666 1760.53 343.866 1759.33 340.933C1758.8 339.733 1757.73 336.8 1756.93 334.666C1756.13 332.4 1754.8 329.466 1754 328C1753.07 326.533 1751.87 323.6 1751.33 321.333C1750.93 319.2 1748.93 314.133 1747.07 310.266C1743.33 302.133 1743.6 302.266 1730.27 307.466C1723.07 310.266 1722.13 310.266 1714.93 308.533C1706.8 306.666 1698.13 299.466 1696.67 293.6C1696.27 292 1696.13 269.333 1696.27 243.333L1696.67 196L1720 195.6C1736.53 195.333 1743.47 194.8 1744.27 193.6C1744.8 192.8 1745.33 183.2 1745.33 172.4C1745.33 154 1745.2 152.666 1742.53 151.333C1740.93 150.4 1732.13 149.866 1719.6 150C1708.4 150.133 1698.53 150.133 1697.73 150.133C1696.4 150 1696 144.933 1696 129.6C1696 115.466 1695.47 108.666 1694.4 107.6C1692 105.2 1637.33 105.333 1637.2 107.6Z" fill="black"/>
<path d="M1474.53 150.533C1464 152.933 1446.53 160.133 1437.6 166C1427.2 172.667 1414.4 185.6 1407.47 196.4C1404.27 201.333 1399.73 211.333 1397.2 218.667C1393.07 231.333 1392.8 233.067 1392.67 251.333C1392.67 269.6 1392.93 271.333 1396.93 283.467C1399.33 290.4 1403.33 299.733 1406 304.133C1420.13 327.733 1443.87 345.2 1470 351.067C1477.33 352.667 1485.87 354.667 1489.07 355.333C1509.73 360.133 1550.27 350.133 1570.8 335.467C1578.8 329.6 1591.6 317.067 1596 310.667C1607.47 294 1612 278.8 1612.93 255.333C1613.47 239.067 1613.2 236 1610.13 224C1608 215.733 1604.67 207.333 1601.33 201.467C1598.4 196.4 1596 191.867 1596 191.333C1596 189.467 1573.87 168.933 1569.33 166.667C1566.8 165.467 1563.73 163.6 1562.67 162.667C1559.33 159.867 1537.2 151.6 1528.8 150.133C1518.27 148.267 1484 148.533 1474.53 150.533ZM1524.53 200.533C1533.6 204.8 1542.13 212.667 1547.73 222.133C1556 236.133 1555.73 268.667 1547.2 282.133C1536.53 299.067 1522 307.333 1502.53 307.333C1483.33 307.333 1466.27 297.067 1457.73 280.267C1450.4 265.6 1450.13 238.933 1457.2 224.4C1469.2 199.6 1499.47 188.933 1524.53 200.533Z" fill="black"/>
<path d="M1829.33 151.467C1806.4 157.333 1782.27 173.333 1770.27 190.4C1762.93 200.533 1760.13 206.267 1755.2 220C1751.73 230 1751.47 232 1751.47 251.333C1751.33 271.333 1751.6 272.4 1755.73 284.667C1764.8 310.533 1781.87 330.267 1806.27 343.067C1816.27 348.4 1823.87 350.667 1841.73 354.133C1861.87 357.867 1865.73 357.733 1894 351.067C1922.93 344.267 1947.47 325.2 1961.33 298.933C1968.4 285.2 1971.33 271.733 1971.33 251.333C1971.33 231.2 1968.67 218.667 1961.6 204.933C1949.2 180.8 1931.33 165.067 1905.33 155.6C1888.4 149.467 1884 148.667 1860.67 148.8C1843.87 148.8 1837.2 149.333 1829.33 151.467ZM1870.67 196.667C1887.73 199.867 1899.2 208.933 1907.6 226C1912.53 235.733 1912.53 236.4 1912.67 251.333C1912.67 266.4 1912.53 266.933 1907.6 277.333C1898.53 296.4 1884.53 305.867 1864 307.067C1846.4 308 1832.53 301.733 1821.6 287.867C1815.73 280.4 1812.93 273.467 1810.53 260.267C1809.2 252.933 1809.33 249.867 1811.33 239.467C1814.8 221.333 1823.2 209.467 1837.73 201.867C1849.47 195.733 1858.53 194.4 1870.67 196.667Z" fill="black"/>
<path d="M323.525 2.40008C312.725 7.46675 307.792 15.6001 307.792 28.0001C307.792 41.6001 312.459 48.9334 325.392 55.4667L331.659 58.6667H437.392H543.125L551.259 54.8001C560.859 50.2667 564.459 46.1334 567.392 36.1334C569.125 30.0001 569.259 27.6001 567.925 22.6667C565.792 14.2667 560.059 6.66675 553.259 3.06675L547.392 7.83205e-05H437.925C336.725 0.133412 328.059 0.266745 323.525 2.40008Z" fill="black"/>
<path d="M107.792 90.2663C105.926 90.6663 99.1255 92.3996 92.5922 94.2663C55.9255 104.666 26.1922 130.933 10.3255 166.666C-0.0745026 190.133 0.592164 174.4 0.192164 384.933C-0.207836 571.6 -0.207836 573.466 2.45883 586.933C7.65883 612.4 18.7255 632.4 38.3255 652.133C51.5255 665.2 57.2588 669.466 73.1255 677.066C92.1922 686.266 103.659 688.266 138.859 689.066C173.126 689.733 177.926 688.933 186.192 681.866C192.859 676.266 196.326 666.133 194.992 656.266C193.926 648.133 190.859 642.8 184.859 638.4C175.526 631.466 171.126 630.666 142.059 630.666C110.326 630.666 104.192 629.333 89.1255 619.333C75.3922 610.266 64.0588 594.533 59.9255 579.333C58.9922 575.733 58.4588 514.266 58.3255 388.666C58.1922 185.066 57.5255 201.2 66.0588 184.4C72.9922 170.4 91.2588 155.333 106.992 150.4C114.726 148 122.592 148 289.792 148C473.392 148.133 472.726 148 495.792 154C516.059 159.2 523.126 161.866 547.792 173.733C582.059 190.133 617.126 221.6 640.059 256.533C654.859 278.933 667.659 308.266 672.326 330C673.659 335.866 675.659 344.266 676.726 348.666C679.392 358.8 680.592 400.4 678.726 416C676.059 437.6 668.192 468.933 664.059 473.6C662.992 474.933 660.059 476.533 657.526 477.2C650.326 479.2 638.192 487.733 633.259 494.4C623.926 506.933 620.592 522.666 624.459 537.2C628.192 551.866 638.192 563.866 652.326 570.666C659.526 574.266 661.792 574.666 672.459 574.666C682.992 574.666 685.526 574.133 692.726 570.8C716.459 559.466 727.526 534.666 719.792 509.866L716.726 500.133L719.659 492.4C723.526 482.533 729.926 459.6 732.459 446.666C739.259 411.466 738.992 364.533 731.926 328.666C728.592 312.266 717.392 277.066 713.126 269.733C712.459 268.4 710.059 263.466 707.792 258.666C702.592 247.066 695.259 233.733 692.592 230.8C691.392 229.466 690.459 227.866 690.459 227.2C690.459 226.533 688.326 223.333 685.792 220.133C683.259 216.933 681.126 213.866 681.126 213.2C681.126 212.666 676.459 206.533 670.592 199.6C648.059 172.533 626.192 153.2 597.659 135.066C587.659 128.666 561.392 114.666 559.392 114.666C558.859 114.666 554.726 112.933 550.192 110.8C545.526 108.533 537.526 105.6 532.326 104.266C526.992 102.8 521.659 101.066 520.326 100.266C518.859 99.5996 511.259 97.733 503.126 96.133C495.126 94.6663 485.126 92.6663 481.126 91.733C475.659 90.6663 427.659 90.133 292.459 89.8663C192.725 89.733 109.659 89.8663 107.792 90.2663Z" fill="black"/>
<path d="M697.792 91.1997C693.392 93.0663 686.325 99.733 682.725 105.066C681.392 107.2 680.592 111.333 680.592 117.2C680.459 129.2 685.125 137.2 695.792 143.066L703.125 147.2L731.792 147.733C750.059 148.133 763.125 148.933 767.659 150.133C791.525 156.266 813.525 181.2 817.125 206.266C818.992 219.466 818.859 559.866 816.992 572.4C814.192 590.8 802.592 608.533 786.725 619.2C768.592 631.2 789.792 630 589.792 630.4C433.926 630.666 410.859 630.533 399.259 628.666C382.992 626 360.592 619.733 349.392 614.533C344.726 612.4 340.459 610.666 339.659 610.666C337.126 610.666 314.859 598.4 303.126 590.4C268.059 566.666 241.526 536.666 222.592 499.333C209.526 473.866 203.926 456.4 197.792 422.533C194.192 402.133 195.526 365.466 200.859 340C204.859 321.066 208.859 308.133 211.792 304.666C212.592 303.733 214.592 302.533 216.192 302.133C222.726 300.533 234.726 292.8 240.326 286.533C248.726 277.2 252.326 267.466 252.326 254C252.459 234.133 243.659 219.333 225.792 209.2C218.459 205.066 216.726 204.666 204.459 204.266C192.859 203.733 190.192 204.133 185.126 206.533C170.992 213.2 158.992 225.866 155.526 237.733C153.126 246.266 153.392 260.933 156.326 270.133C158.726 278 158.726 278.666 156.459 285.466C155.126 289.466 153.659 293.2 153.126 294C151.792 295.6 143.392 330.133 140.992 344C138.459 357.6 138.459 422.4 140.859 435.333C148.992 478.133 160.192 509.333 179.659 542.666C187.526 556.133 190.459 560.266 204.459 577.866C215.926 592.4 234.592 611.733 243.126 618C246.059 620.133 249.126 622.533 249.792 623.333C251.792 625.333 268.592 637.466 277.126 642.933C312.459 665.466 349.259 679.333 392.459 686.266C406.059 688.533 420.592 688.666 586.459 688.666C790.192 688.666 776.059 689.466 801.792 677.333C840.459 659.2 865.792 626 873.925 582.8L876.992 566L877.125 389.333C877.125 216.933 876.992 212.266 874.459 198C871.259 180.8 868.992 173.733 863.659 162.666C846.459 127.2 815.925 102.533 777.259 92.7997C764.325 89.5997 761.392 89.333 732.592 89.333C710.059 89.4663 700.725 89.8663 697.792 91.1997Z" fill="black"/>
<path d="M417.792 197.6C382.992 202.8 357.659 212 331.792 228.8C303.125 247.333 276.992 278 263.125 309.067C252.859 332.267 248.459 349.333 246.592 372.533C244.859 392.4 246.325 419.067 249.792 430.667C250.725 434 252.459 440.267 253.792 444.667C265.659 486.667 295.125 526.133 333.125 550.8C354.725 564.8 376.325 573.2 404.859 578.667C428.592 583.2 444.325 583.733 459.925 580.8C465.392 579.733 475.525 577.867 482.459 576.533C489.392 575.333 496.325 573.467 497.792 572.667C499.259 571.733 503.525 570.133 507.259 568.8C540.059 558 581.525 523.467 601.925 490C613.925 470.4 623.525 444.667 627.392 422C630.059 406 630.059 370.933 627.259 356C625.392 345.733 624.192 341.067 619.392 324.667C617.392 318.133 608.192 299.2 602.192 289.333C585.525 261.733 558.859 236.267 529.792 220.267C497.525 202.267 450.192 192.667 417.792 197.6ZM457.125 256.667C477.125 258.667 500.992 268.4 518.725 282C544.992 302.267 561.792 328.933 569.792 363.333C573.392 378.267 572.192 413.067 567.792 423.333C567.125 424.8 565.659 429.467 564.459 433.867C557.659 458.667 528.992 493.6 506.459 504.667C503.925 506 500.859 507.733 499.792 508.667C498.725 509.6 496.325 510.8 494.459 511.333C492.592 511.867 488.192 513.733 484.459 515.467C468.325 522.8 435.525 525.333 410.992 520.933C375.392 514.533 337.792 487.2 321.792 456.267C319.525 452 316.725 446.8 315.392 444.8C314.059 442.8 311.925 436.933 310.459 431.6C309.125 426.267 307.125 419.867 306.192 417.333C304.992 414.133 304.459 405.467 304.459 389.333C304.459 366.933 304.725 365.467 308.725 352.533C316.725 326.933 326.592 310.667 344.859 293.067C369.259 269.467 394.992 258 429.125 255.467C435.525 255.067 442.859 255.333 457.125 256.667Z" fill="black"/>
</svg>
